# xmcd
#
# Track frame offsets:
# 150
# 18790
# 31374
# 41611
# 55193
# 70309
# 83434
# 101275
# 114837
# 130621
# 143970
# 160383
# 175375
# 192630
# 209605
# 222174
#
# Disc length: 3137 seconds
#
#
# Revision: 0
# Processed by: cddbd v1.5PL3 Copyright (c) Steve Scherf et al.
# Submitted via: FreeRIP 2.60 
#
DISCID=db0c3f10
DTITLE=Iran e Ivan - Iran e Ivan
DYEAR=2003
DGENRE=
TTITLE0=Coisa de pele
TTITLE1=No embalo da noitada
TTITLE2=Nos bracos da Guria
TTITLE3=Festa cerveja e mulher
TTITLE4=No vai e vem da morena
TTITLE5=Vou quebrar tudo
TTITLE6=Quando a paixao acontece
TTITLE7=Hoje nao tem saideira
TTITLE8=Festa de rodeio
TTITLE9=Hei amor
TTITLE10=Cai a noite
TTITLE11=Ai ai amor
TTITLE12=Viola e berrante
TTITLE13=Nao é facil nao
TTITLE14=E diamente e seu abraco
TTITLE15=Até suar ate suar
EXTD=
EXTT0=
EXTT1=
EXTT2=
EXTT3=
EXTT4=
EXTT5=
EXTT6=
EXTT7=
EXTT8=
EXTT9=
EXTT10=
EXTT11=
EXTT12=
EXTT13=
EXTT14=
EXTT15=
PLAYORDER=
